<?xml version="1.0" encoding="utf-8"?>
<!-- Svg Vector Icons : http://www.onlinewebfonts.com/icon -->
<!DOCTYPE svg PUBLIC "-//W3C//DTD SVG 1.1//EN" "http://www.w3.org/Graphics/SVG/1.1/DTD/svg11.dtd">
<svg version="1.1" xmlns="http://www.w3.org/2000/svg" xmlns:xlink="http://www.w3.org/1999/xlink" x="0px" y="0px" viewBox="0 0 1000 1000" enable-background="new 0 0 1000 1000" xml:space="preserve">
<metadata> Svg Vector Icons : http://www.onlinewebfonts.com/icon </metadata>
<g><path d="M699.5,38.6l-70.9-2.1l-78.5,93.2l-84.4-0.1C448.8,61,386.8,10,313.1,10c-86.7,0-157.2,70.5-157.2,157.2c0,69.1,44.8,127.9,106.8,148.9c-9.2,21.7-37.6,92.2-39.7,142.2c-2.3,56.8,4.2,90.5,23.2,120.4c9.8,15.4,33.6,33.9,58.7,53.4c18.1,14,40.6,31.5,46.2,40.2c4,6.2,7.9,11.1,11.3,15.4c9.6,12.2,17.3,21.9,25.1,58.6c10.8,51,4.5,94.2-7,109c-15.9,20.5-58.9,63.2-107.8,78.5l-2.9,0.9l-2.4,1.8c-12,9.2-17.7,19.3-17,30c0.6,10.3,7.2,17.7,13.1,21.1l4,2.3H584l2-0.5c2.3-0.6,14.2-4,20.3-14.8c3.6-6.4,4.4-14.1,2.2-21.5l-0.6-1.9l-1-1.7c-5.8-10.2-18.8-16.9-38.5-26.9c-27-13.8-63.6-32.5-90.8-65c-16.4-56.8-12.1-77.9-7.9-98.4c0.4-2.2,0.9-4.3,1.3-6.5l0.4-2.2c4.4-23.4,9.9-52.6,43.1-77.2c17.9-13.3,108.1-83.6,122.8-158.5c11.5-58.6-7.3-105.8-10-112.1c-16.9-46.4-39.3-119.6-36.6-137.9c4.2-28.2,18.1-70.8,29.8-91c9.4-16.3,6.3-27.1,2.1-33.3c-1.3-1.9-2.8-3.4-4.4-4.8l34.6-41.4l17.1,0.5l128.2,175.1l46-33.6L699.5,38.6z M521.4,163.9L407.1,299.6l40.4,34.1H292.4c2.6-6.2,4.2-9.8,4.3-10l-0.1-0.1c5.4,0.6,10.9,0.9,16.5,0.9c86.7,0,157.2-70.5,157.2-157.2c0-1.1,0-2.3,0-3.4L521.4,163.9z M551.1,163.9l13.8,0L447.8,304l-8.6-7.2L551.1,163.9z M304.3,151.3h20l8.1,8.9v14.6l-12.9,13h-11.3L296,174.3v-14.6L304.3,151.3z M330.2,207.1l58.1,57.5c-16.5,12.8-36.4,21.5-58.1,24.5V207.1z M412.1,240.1l-56.4-55.8h79.2C432,205,424,224,412.1,240.1z M330.2,129.5V45.4c23.3,3.3,44.6,13.1,61.9,27.6L330.2,129.5z M296,125.1l-56.8-56.2c16.3-12.3,35.7-20.6,56.8-23.5V125.1z M296,289.1c-22.8-3.2-43.6-12.6-60.7-26.6L296,207V289.1z M434.9,150.1h-76.7l56.7-51.8C425.3,113.5,432.3,131.1,434.9,150.1z M215,93l57.7,57.1h-81.4C194.2,128.9,202.6,109.4,215,93z M191.2,184.3h79l-58.1,53.1C201.3,221.9,193.9,203.9,191.2,184.3z M603.8,508.2c-9.5,48.5-65,104.5-109.6,137.7c-43.9,32.6-51.7,73.7-56.3,98.3l-0.4,2.2c-0.4,2-0.8,4-1.2,6.1c-4.8,23.8-10.3,50.7,9.6,118.2l1,3.2l2.1,2.6c32,39.8,75.3,61.9,104,76.6c1.7,0.9,3.5,1.8,5.3,2.7H309.4c45-21.7,81.6-58.4,98-79.5c20-25.8,25.4-80.8,13.5-137.1c-9.5-44.5-20.2-58.2-31.7-72.6c-3.2-4.1-6.3-8-9.5-12.9c-8.8-13.5-29.7-29.7-53.9-48.5c-19.7-15.3-44.2-34.4-50.9-44.8c-12.4-19.5-20.2-44-17.8-100.6c1.1-27.4,12-63.7,22.1-91.9h300.3c8.2,25.8,15.6,46,15.9,47l0.5,1.1C596.1,416.3,613.8,457,603.8,508.2z M569.2,333.7H452.7l125.7-150.3c-9.5,23.9-18,53.4-21.4,76.3C555.7,268.6,555.7,285.9,569.2,333.7z M681.8,72.3l-39.3-1.2l-49.1,58.7l-13.6,0L639,59.6l48.8,1.5l124.6,170.2l-9.2,6.7L681.8,72.3z"/></g>
</svg>