<?xml version="1.0" encoding="utf-8"?>
<!-- Svg Vector Icons : http://www.onlinewebfonts.com/icon -->
<!DOCTYPE svg PUBLIC "-//W3C//DTD SVG 1.1//EN" "http://www.w3.org/Graphics/SVG/1.1/DTD/svg11.dtd">
<svg version="1.1" xmlns="http://www.w3.org/2000/svg" xmlns:xlink="http://www.w3.org/1999/xlink" x="0px" y="0px" viewBox="0 0 1000 1000" enable-background="new 0 0 1000 1000" xml:space="preserve">
<metadata> Svg Vector Icons : http://www.onlinewebfonts.com/icon </metadata>
<g><g transform="translate(0.000000,512.000000) scale(0.100000,-0.100000)"><path d="M6830.6,4995.1c-26.8-13.4-59.4-49.8-72.8-80.4c-13.4-28.7-97.6-635.7-185.7-1346.1c-88.1-710.4-164.7-1321.2-170.4-1353.8l-11.5-63.2h-137.9h-139.8l-34.5,168.5c-116.8,578.3-492.1,1053.2-1034,1305.9c-256.6,120.6-438.5,158.9-748.7,160.8c-197.2,1.9-308.3-7.7-419.3-32.5c-654.9-155.1-1162.3-633.8-1363.3-1288.7c-49.8-158.9-53.6-193.4-53.6-505.5s3.8-346.6,53.6-505.5c181.9-597.4,633.8-1062.7,1198.7-1237c99.6-30.6,203-59.4,229.8-65.1l47.9-9.6l139.8-2399.3c76.6-1319.3,143.6-2428,149.4-2460.5l9.6-63.2h1424.6c785.1,0,1426.5,1.9,1426.5,5.7c0,1.9,90,1535.7,201.1,3408.4c111,1870.8,201.1,3429.4,201.1,3460.1v57.4h-363.8c-315.9,0-363.8,3.8-363.8,30.6c0,15.3,72.7,616.6,162.8,1334.6c90,718.1,158.9,1328.9,153.2,1357.6C7102.5,4995.1,6945.5,5058.3,6830.6,4995.1z M4075.1,2913.7v-465.3l-325.5,325.5l-327.4,325.5l44,36.4c101.5,82.3,474.9,235.5,585.9,239.4C4069.4,3377.1,4075.1,3271.8,4075.1,2913.7z M4754.9,3306.2c141.7-49.8,316-141.7,350.4-183.8c17.2-19.1-53.6-99.6-302.5-348.5l-325.5-325.5v465.3V3379l72.8-13.4C4588.3,3357.9,4682.1,3331.1,4754.9,3306.2z M3462.4,2486.7l315.9-315.9h-455.7c-317.9,0-453.8,5.7-453.8,21.1c0,42.1,59.4,247,97.7,337c44,103.4,149.4,273.8,168.5,273.8C3140.7,2802.6,3288.2,2661,3462.4,2486.7z M5473,2747.1c57.5-82.3,153.2-293,183.8-407.9c47.9-183.8,88.1-168.5-427-168.5H4774l316,315.9c174.2,174.3,321.7,315.9,329.3,315.9C5427,2802.6,5450,2777.8,5473,2747.1z M3462.4,1433.6c-174.2-174.2-323.6-314-333.2-310.2c-59.4,19.1-216.4,365.7-250.8,555.3l-13.4,70.8h455.7h457.6L3462.4,1433.6z M6334.6,1709.3c0-21.1-42.1-383-95.7-802.3c-51.7-419.3-95.7-767.8-95.7-773.6s-390.6-11.5-869.3-11.5h-869.3L4393,261.7c-9.6,109.2-88.1,1430.4-88.1,1476.3c0,5.8,457.6,11.5,1014.9,11.5h1014.9V1709.3z M7106.3,1736.1c3.9-9.6-13.4-333.2-36.3-723.8c-24.9-388.7-44.1-748.7-44.1-798.5l-1.9-91.9h-235.5h-235.5l99.6,800.4c55.5,438.5,101.5,804.2,103.4,813.8c0,7.7,76.6,13.4,170.4,13.4C7022.1,1749.5,7102.5,1743.8,7106.3,1736.1z M3950.7,817l13.4-252.8L3860.7,593c-111.1,34.5-298.7,124.5-384.9,185.7l-55.5,38.3l247,247l245.1,245.1l11.5-118.7C3931.5,1123.4,3943,954.9,3950.7,817z M6985.7-331.9c1.9-93.8-174.2-3134.6-183.8-3178.6l-7.7-44H5702.7H4611.3v47.9c0,72.8-170.4,2971.8-181.9,3107.7l-11.5,118.7h1284.8h1282.9V-331.9z M6773.1-4046.6c-1.9-51.7-7.7-147.5-15.3-216.4l-11.5-124.5l-26.8,72.8c-26.8,80.4-114.9,147.4-193.4,147.4c-76.6,0-166.6-67-191.5-141.7l-23-68.9h-197.2h-197.2l-13.4,57.4c-15.3,74.7-111.1,153.2-183.8,153.2c-109.2,0-178.1-57.4-216.4-176.2c-9.6-30.6-36.4-34.5-203-34.5h-191.5l-30.6,76.6c-34.5,86.2-105.3,134-201.1,134c-70.8,0-187.6-105.3-191.5-174.2c-5.7-103.4-32.5,72.8-34.5,227.9l-1.9,157h1062.7H6775L6773.1-4046.6z"/><path d="M4954-1982.5c-95.7-95.7-63.2-275.7,57.4-327.4c120.6-49.8,256.6,21.1,281.5,149.4C5331.3-1971,5091.9-1844.6,4954-1982.5z"/><path d="M4808.5-2758c-63.2-28.7-120.6-114.9-120.6-183.8c0-70.8,57.4-155.1,128.3-183.8c195.3-82.4,363.8,160.8,222.1,317.8C4975.1-2738.8,4892.8-2721.6,4808.5-2758z"/></g></g>
</svg>