<?xml version="1.0" encoding="utf-8"?>
<!-- Svg Vector Icons : http://www.onlinewebfonts.com/icon -->
<!DOCTYPE svg PUBLIC "-//W3C//DTD SVG 1.1//EN" "http://www.w3.org/Graphics/SVG/1.1/DTD/svg11.dtd">
<svg version="1.1" xmlns="http://www.w3.org/2000/svg" xmlns:xlink="http://www.w3.org/1999/xlink" x="0px" y="0px" viewBox="0 0 1000 1000" enable-background="new 0 0 1000 1000" xml:space="preserve">
<metadata> Svg Vector Icons : http://www.onlinewebfonts.com/icon </metadata>
<g><path d="M716.1,412.2c3.1,4.8,8.3,7.4,13.6,7.4c3,0,6.1-0.8,8.8-2.6c7.5-4.9,9.7-14.9,4.8-22.4c-0.5-0.8-50.4-79.9-8.1-133.9c23.4-29.8,27.5-67.4,11.8-108.7c-11.2-29.5-28.7-50.6-29.4-51.5c-5.7-6.9-16-7.8-22.8-2c-6.9,5.7-7.8,15.9-2.1,22.8c0.8,1,56.3,69.2,17,119.4C653.1,312.9,713.5,408.1,716.1,412.2z"/><path d="M824.9,412.2c3.1,4.8,8.3,7.4,13.6,7.4c3,0,6.1-0.8,8.8-2.6c7.5-4.9,9.7-14.9,4.8-22.4c-0.5-0.8-50.4-79.9-8.1-133.9c23.4-29.8,27.5-67.4,11.8-108.7c-11.2-29.5-28.7-50.6-29.4-51.5c-5.7-6.9-16-7.8-22.8-2c-6.9,5.7-7.8,15.9-2.1,22.8c0.6,0.7,56.4,69.1,17,119.4C761.9,312.9,822.3,408.1,824.9,412.2z"/><path d="M144.4,419.7c3.1,4.8,8.3,7.4,13.6,7.4c3,0,6.1-0.8,8.8-2.6c7.5-4.9,9.7-14.9,4.8-22.4c-0.5-0.8-50.4-79.9-8.1-133.9c23.4-29.8,27.5-67.4,11.8-108.7c-11.2-29.5-28.7-50.6-29.4-51.5c-5.7-6.9-16-7.8-22.8-2c-6.9,5.7-7.8,15.9-2.1,22.8c0.6,0.7,56.4,69.1,17,119.4C81.4,320.4,141.8,415.6,144.4,419.7z"/><path d="M253.1,419.7c3.1,4.8,8.3,7.4,13.6,7.4c3,0,6.1-0.8,8.8-2.6c7.5-4.9,9.7-14.9,4.8-22.4c-0.5-0.8-50.4-79.9-8.1-133.9c23.4-29.8,27.5-67.4,11.8-108.7C273,130,255.4,108.9,254.7,108c-5.7-6.9-16-7.8-22.8-2c-6.9,5.7-7.8,15.9-2.1,22.8c0.6,0.7,56.4,69.1,17,119.4C190.2,320.4,250.5,415.6,253.1,419.7z"/><path d="M936.2,777.4h-34.4c-8.1-202.2-166.4-366.3-366.1-383.7v-16.5c20.3-12.1,32.9-33.9,32.9-58c0-37.4-30.4-67.9-67.9-67.9c-0.2,0-1.2,0-1.5,0c-37.4,0-67.9,30.4-67.9,67.9c0,24.2,12.6,45.9,32.9,58v16.5c-199.7,17.3-358,181.5-366.1,383.7H63.8c-29.7,0-53.8,24.1-53.8,53.8v20.3c0,29.7,24.1,53.8,53.8,53.8h872.4c29.7,0,53.8-24.1,53.8-53.8v-20.3C990,801.5,965.9,777.4,936.2,777.4z M463.8,319.2c0-19.5,15.9-35.4,35.5-35.4c0.2,0,1.2,0,1.5,0c19.5,0,35.5,15.9,35.5,35.4c0,14.6-8.9,27.5-22.6,32.9c-6.2,2.4-10.3,8.4-10.3,15.1v25h-6.6v-25c0-6.7-4.1-12.6-10.3-15.1C472.7,346.7,463.8,333.8,463.8,319.2z M957.6,851.5c0,11.8-9.6,21.4-21.4,21.4H63.8c-11.8,0-21.4-9.6-21.4-21.4v-20.3c0-11.8,9.6-21.4,21.4-21.4h26.6c0.1,0,0.3,0,0.4,0h582c8.9,0,16.2-7.3,16.2-16.2c0-8.9-7.3-16.2-16.2-16.2H130.6c8.5-195.5,169.8-352,367.1-352.8h4.5c197.4,0.8,358.7,157.3,367.1,352.8h-91.7c-9,0-16.2,7.3-16.2,16.2c0,9,7.3,16.2,16.2,16.2l125.1,0h33.4c11.8,0,21.4,9.6,21.4,21.4L957.6,851.5L957.6,851.5z"/></g>
</svg>